<svg width="12000" height="2400" viewBox="0 0 12000 2400" fill="none" xmlns="http://www.w3.org/2000/svg">
<path d="M1242.19 448.8C1310.99 448.8 1378.99 455.2 1446.19 468C1514.99 480.8 1573.39 498.4 1621.39 520.8C1613.39 575.2 1608.59 633.6 1606.99 696C1605.39 756.8 1604.59 817.6 1604.59 878.4H1510.99C1510.99 782.4 1484.59 705.6 1431.79 648C1380.59 590.4 1312.59 561.6 1227.79 561.6C1150.99 561.6 1086.99 581.6 1035.79 621.6C986.188 661.6 961.388 716.8 961.388 787.2C961.388 846.4 976.588 896.8 1006.99 938.4C1038.99 978.4 1074.99 1010.4 1114.99 1034.4C1156.59 1058.4 1214.19 1088 1287.79 1123.2C1362.99 1158.4 1425.39 1193.6 1474.99 1228.8C1526.19 1264 1569.39 1311.2 1604.59 1370.4C1641.39 1428 1659.79 1498.4 1659.79 1581.6C1659.79 1669.6 1638.19 1746.4 1594.99 1812C1553.39 1876 1495.79 1925.6 1422.19 1960.8C1350.19 1994.4 1269.39 2011.2 1179.79 2011.2C1029.39 2011.2 889.388 1986.4 759.788 1936.8C759.788 1783.2 752.588 1649.6 738.188 1536H836.588C862.188 1657.6 902.988 1748.8 958.987 1809.6C1014.99 1868.8 1091.79 1898.4 1189.39 1898.4C1262.99 1898.4 1326.19 1876.8 1378.99 1833.6C1433.39 1788.8 1460.59 1726.4 1460.59 1646.4C1460.59 1582.4 1446.99 1530.4 1419.79 1490.4C1392.59 1450.4 1359.79 1419.2 1321.39 1396.8C1282.99 1374.4 1224.59 1344.8 1146.19 1308C1072.59 1274.4 1009.39 1240.8 956.588 1207.2C905.388 1172 861.388 1125.6 824.588 1068C787.788 1008.8 769.388 936.8 769.388 852C769.388 711.2 814.988 608.8 906.188 544.8C997.388 480.8 1109.39 448.8 1242.19 448.8ZM2576.38 446.4C2629.18 446.4 2688.38 451.2 2753.98 460.8C2821.18 468.8 2883.58 480 2941.18 494.4C2933.18 556.8 2928.38 624.8 2926.78 698.4C2925.18 772 2924.38 844 2924.38 914.4H2825.98C2825.98 805.6 2798.78 720 2744.38 657.6C2689.98 593.6 2616.38 561.6 2523.58 561.6C2374.78 561.6 2266.78 620.8 2199.58 739.2C2132.38 857.6 2098.78 1026.4 2098.78 1245.6C2098.78 1450.4 2141.18 1602.4 2225.98 1701.6C2312.38 1800.8 2423.58 1850.4 2559.58 1850.4C2679.58 1850.4 2804.38 1810.4 2933.98 1730.4L2972.38 1802.4C2887.58 1871.2 2799.58 1923.2 2708.38 1958.4C2617.18 1993.6 2527.58 2011.2 2439.58 2011.2C2330.78 2011.2 2232.38 1984.8 2144.38 1932C2057.98 1879.2 1989.18 1800 1937.98 1694.4C1886.78 1588.8 1861.18 1460 1861.18 1308C1861.18 1037.6 1923.58 826.4 2048.38 674.4C2173.18 522.4 2349.18 446.4 2576.38 446.4ZM3823.69 446.4C4009.29 446.4 4148.49 505.6 4241.29 624C4335.69 742.4 4382.89 916 4382.89 1144.8C4382.89 1335.2 4354.89 1495.2 4298.89 1624.8C4242.89 1754.4 4166.89 1851.2 4070.89 1915.2C3976.49 1979.2 3870.09 2011.2 3751.69 2011.2C3567.69 2011.2 3427.69 1951.2 3331.69 1831.2C3237.29 1709.6 3190.09 1535.2 3190.09 1308C3190.09 1117.6 3218.09 958.4 3274.09 830.4C3330.09 700.8 3405.29 604.8 3499.69 542.4C3595.69 478.4 3703.69 446.4 3823.69 446.4ZM3756.49 556.8C3537.29 556.8 3427.69 796 3427.69 1274.4C3427.69 1463.2 3459.69 1615.2 3523.69 1730.4C3587.69 1844 3687.69 1900.8 3823.69 1900.8C3934.09 1900.8 4015.69 1836 4068.49 1706.4C4121.29 1575.2 4147.69 1398.4 4147.69 1176C4147.69 985.6 4116.49 835.2 4054.09 724.8C3991.69 612.8 3892.49 556.8 3756.49 556.8ZM5576.33 1737.6C5600.33 1787.2 5629.93 1825.6 5665.12 1852.8C5700.33 1880 5748.33 1894.4 5809.12 1896V1987.2C5727.52 1982.4 5641.13 1980 5549.93 1980H5456.33L5113.13 1308H5067.53C5032.33 1308 5005.13 1307.2 4985.93 1305.6V1694.4C4985.93 1750.4 4989.93 1792 4997.93 1819.2C5007.53 1844.8 5025.93 1864 5053.12 1876.8C5081.93 1888 5126.73 1894.4 5187.53 1896V1987.2C5030.73 1979.2 4928.33 1975.2 4880.33 1975.2C4832.33 1975.2 4736.33 1979.2 4592.33 1987.2V1896C4643.53 1894.4 4681.13 1888 4705.13 1876.8C4729.13 1864 4745.13 1844 4753.12 1816.8C4762.73 1789.6 4767.53 1748.8 4767.53 1694.4V768C4767.53 713.6 4762.73 672.8 4753.12 645.6C4745.13 618.4 4729.13 599.2 4705.13 588C4681.13 576.8 4643.53 570.4 4592.33 568.8V482.4C4637.13 482.4 4733.93 480 4882.73 475.2C4946.73 470.4 5013.93 468 5084.33 468C5266.73 468 5404.33 504 5497.13 576C5591.53 648 5638.73 744.8 5638.73 866.4C5638.73 968.8 5612.33 1055.2 5559.53 1125.6C5508.33 1194.4 5432.33 1244 5331.53 1274.4L5576.33 1737.6ZM4985.93 1192.8C5024.33 1197.6 5061.93 1200 5098.73 1200C5196.33 1200 5274.73 1169.6 5333.93 1108.8C5393.13 1048 5422.73 975.2 5422.73 890.4C5422.73 797.6 5395.53 724 5341.13 669.6C5286.73 615.2 5200.33 588 5081.93 588H4985.93V1192.8ZM7066.86 1555.2L6980.46 1994.4C6862.06 1984.8 6716.46 1980 6543.66 1980H6279.66C6177.26 1980 6079.66 1982.4 5986.86 1987.2V1896C6038.06 1894.4 6075.66 1888 6099.66 1876.8C6123.66 1864 6139.66 1844 6147.66 1816.8C6157.26 1789.6 6162.06 1748.8 6162.06 1694.4V768C6162.06 713.6 6157.26 672.8 6147.66 645.6C6139.66 618.4 6123.66 599.2 6099.66 588C6075.66 575.2 6038.06 568 5986.86 566.4V475.2C6079.66 478.4 6177.26 480 6279.66 480H6543.66C6713.26 480 6854.86 476 6968.46 468L6994.86 890.4H6901.26C6882.06 815.2 6860.46 756.8 6836.46 715.2C6814.06 672 6780.46 640 6735.66 619.2C6690.86 598.4 6629.26 588 6550.86 588H6380.46V1188H6454.86C6523.66 1188 6574.86 1175.2 6608.46 1149.6C6643.66 1122.4 6662.06 1072.8 6663.66 1000.8H6754.86L6750.06 1068C6745.26 1141.6 6742.86 1198.4 6742.86 1238.4C6742.86 1273.6 6745.26 1328.8 6750.06 1404L6754.86 1476H6663.66C6662.06 1405.6 6643.66 1358.4 6608.46 1334.4C6574.86 1308.8 6523.66 1296 6454.86 1296H6380.46V1872H6550.86C6643.66 1872 6718.06 1859.2 6774.06 1833.6C6830.06 1808 6872.46 1772.8 6901.26 1728C6930.06 1681.6 6954.06 1624 6973.26 1555.2H7066.86ZM7778.91 448.8C7847.71 448.8 7915.71 455.2 7982.91 468C8051.71 480.8 8110.11 498.4 8158.11 520.8C8150.11 575.2 8145.31 633.6 8143.71 696C8142.11 756.8 8141.31 817.6 8141.31 878.4H8047.71C8047.71 782.4 8021.31 705.6 7968.51 648C7917.31 590.4 7849.31 561.6 7764.51 561.6C7687.71 561.6 7623.71 581.6 7572.51 621.6C7522.91 661.6 7498.11 716.8 7498.11 787.2C7498.11 846.4 7513.31 896.8 7543.71 938.4C7575.71 978.4 7611.71 1010.4 7651.71 1034.4C7693.31 1058.4 7750.91 1088 7824.51 1123.2C7899.71 1158.4 7962.11 1193.6 8011.71 1228.8C8062.91 1264 8106.11 1311.2 8141.31 1370.4C8178.11 1428 8196.51 1498.4 8196.51 1581.6C8196.51 1669.6 8174.91 1746.4 8131.71 1812C8090.11 1876 8032.51 1925.6 7958.91 1960.8C7886.91 1994.4 7806.11 2011.2 7716.51 2011.2C7566.11 2011.2 7426.11 1986.4 7296.51 1936.8C7296.51 1783.2 7289.31 1649.6 7274.91 1536H7373.31C7398.91 1657.6 7439.71 1748.8 7495.71 1809.6C7551.71 1868.8 7628.51 1898.4 7726.11 1898.4C7799.71 1898.4 7862.91 1876.8 7915.71 1833.6C7970.11 1788.8 7997.31 1726.4 7997.31 1646.4C7997.31 1582.4 7983.71 1530.4 7956.51 1490.4C7929.31 1450.4 7896.51 1419.2 7858.11 1396.8C7819.71 1374.4 7761.31 1344.8 7682.91 1308C7609.31 1274.4 7546.11 1240.8 7493.31 1207.2C7442.11 1172 7398.11 1125.6 7361.31 1068C7324.51 1008.8 7306.11 936.8 7306.11 852C7306.11 711.2 7351.71 608.8 7442.91 544.8C7534.11 480.8 7646.11 448.8 7778.91 448.8ZM9945.08 890.4H9851.48C9835.48 815.2 9815.48 756.8 9791.48 715.2C9767.48 672 9732.28 640 9685.88 619.2C9641.08 598.4 9579.48 588 9501.08 588H9354.68V1190.4H9419.48C9489.88 1190.4 9541.88 1176.8 9575.48 1149.6C9610.68 1122.4 9629.88 1072.8 9633.08 1000.8H9721.88L9717.08 1065.6C9712.28 1142.4 9709.88 1200.8 9709.88 1240.8C9709.88 1279.2 9712.28 1340.8 9717.08 1425.6L9721.88 1507.2H9633.08C9629.88 1422.4 9611.48 1366.4 9577.88 1339.2C9544.28 1310.4 9491.48 1296 9419.48 1296H9354.68V1694.4C9354.68 1750.4 9358.68 1792 9366.68 1819.2C9376.28 1844.8 9394.68 1864 9421.88 1876.8C9450.68 1888 9495.48 1894.4 9556.28 1896V1987.2L9491.48 1984.8C9395.48 1978.4 9315.48 1975.2 9251.48 1975.2C9190.68 1975.2 9116.28 1978.4 9028.28 1984.8C8999.48 1984.8 8977.08 1985.6 8961.08 1987.2V1896C9012.28 1894.4 9049.88 1888 9073.88 1876.8C9097.88 1864 9113.88 1844 9121.88 1816.8C9131.48 1789.6 9136.28 1748.8 9136.28 1694.4V768C9136.28 713.6 9131.48 672.8 9121.88 645.6C9113.88 618.4 9097.88 599.2 9073.88 588C9049.88 575.2 9012.28 568 8961.08 566.4V475.2C9053.88 478.4 9151.48 480 9253.88 480H9496.28C9665.88 480 9806.68 476 9918.68 468L9945.08 890.4ZM10854.5 446.4C10907.3 446.4 10966.5 451.2 11032.1 460.8C11099.3 468.8 11161.7 480 11219.3 494.4C11211.3 556.8 11206.5 624.8 11204.9 698.4C11203.3 772 11202.5 844 11202.5 914.4H11104.1C11104.1 805.6 11076.9 720 11022.5 657.6C10968.1 593.6 10894.5 561.6 10801.7 561.6C10652.9 561.6 10544.9 620.8 10477.7 739.2C10410.5 857.6 10376.9 1026.4 10376.9 1245.6C10376.9 1450.4 10419.3 1602.4 10504.1 1701.6C10590.5 1800.8 10701.7 1850.4 10837.7 1850.4C10957.7 1850.4 11082.5 1810.4 11212.1 1730.4L11250.5 1802.4C11165.7 1871.2 11077.7 1923.2 10986.5 1958.4C10895.3 1993.6 10805.7 2011.2 10717.7 2011.2C10608.9 2011.2 10510.5 1984.8 10422.5 1932C10336.1 1879.2 10267.3 1800 10216.1 1694.4C10164.9 1588.8 10139.3 1460 10139.3 1308C10139.3 1037.6 10201.7 826.4 10326.5 674.4C10451.3 522.4 10627.3 446.4 10854.5 446.4Z" fill="#116530"/>
</svg>
