<svg width="3000" height="3000" viewBox="0 0 3000 3000" fill="none" xmlns="http://www.w3.org/2000/svg">
<rect y="3000" width="3000" height="3000" rx="1500" transform="rotate(-90 0 3000)" fill="#FFCC1D"/>
<path d="M1500 0C671.572 0 0 671.572 0 1500C828.428 1500 1500 828.427 1500 0Z" fill="#116530"/>
<path d="M1500 3000C2328.43 3000 3000 2328.43 3000 1500C2171.57 1500 1500 2171.57 1500 3000Z" fill="#116530"/>
<path d="M1500 0C2328.43 0 3000 671.572 3000 1500C2171.57 1500 1500 828.427 1500 0Z" fill="#116530"/>
<path d="M1500 3000C671.572 3000 -7.24234e-05 2328.43 0 1500C828.428 1500 1500 2171.57 1500 3000Z" fill="#116530"/>
</svg>
