<svg width="15000" height="3000" viewBox="0 0 15000 3000" fill="none" xmlns="http://www.w3.org/2000/svg">
<path d="M4242.19 748.8C4310.99 748.8 4378.99 755.2 4446.19 768C4514.99 780.8 4573.39 798.4 4621.39 820.8C4613.39 875.2 4608.59 933.6 4606.99 996C4605.39 1056.8 4604.59 1117.6 4604.59 1178.4H4510.99C4510.99 1082.4 4484.59 1005.6 4431.79 948C4380.59 890.4 4312.59 861.6 4227.79 861.6C4150.99 861.6 4086.99 881.6 4035.79 921.6C3986.19 961.6 3961.39 1016.8 3961.39 1087.2C3961.39 1146.4 3976.59 1196.8 4006.99 1238.4C4038.99 1278.4 4074.99 1310.4 4114.99 1334.4C4156.59 1358.4 4214.19 1388 4287.79 1423.2C4362.99 1458.4 4425.39 1493.6 4474.99 1528.8C4526.19 1564 4569.39 1611.2 4604.59 1670.4C4641.39 1728 4659.79 1798.4 4659.79 1881.6C4659.79 1969.6 4638.19 2046.4 4594.99 2112C4553.39 2176 4495.79 2225.6 4422.19 2260.8C4350.19 2294.4 4269.39 2311.2 4179.79 2311.2C4029.39 2311.2 3889.39 2286.4 3759.79 2236.8C3759.79 2083.2 3752.59 1949.6 3738.19 1836H3836.59C3862.19 1957.6 3902.99 2048.8 3958.99 2109.6C4014.99 2168.8 4091.79 2198.4 4189.39 2198.4C4262.99 2198.4 4326.19 2176.8 4378.99 2133.6C4433.39 2088.8 4460.59 2026.4 4460.59 1946.4C4460.59 1882.4 4446.99 1830.4 4419.79 1790.4C4392.59 1750.4 4359.79 1719.2 4321.39 1696.8C4282.99 1674.4 4224.59 1644.8 4146.19 1608C4072.59 1574.4 4009.39 1540.8 3956.59 1507.2C3905.39 1472 3861.39 1425.6 3824.59 1368C3787.79 1308.8 3769.39 1236.8 3769.39 1152C3769.39 1011.2 3814.99 908.8 3906.19 844.8C3997.39 780.8 4109.39 748.8 4242.19 748.8ZM5576.38 746.4C5629.18 746.4 5688.38 751.2 5753.98 760.8C5821.18 768.8 5883.58 780 5941.18 794.4C5933.18 856.8 5928.38 924.8 5926.78 998.4C5925.18 1072 5924.38 1144 5924.38 1214.4H5825.98C5825.98 1105.6 5798.78 1020 5744.38 957.6C5689.98 893.6 5616.38 861.6 5523.58 861.6C5374.78 861.6 5266.78 920.8 5199.58 1039.2C5132.38 1157.6 5098.78 1326.4 5098.78 1545.6C5098.78 1750.4 5141.18 1902.4 5225.98 2001.6C5312.38 2100.8 5423.58 2150.4 5559.58 2150.4C5679.58 2150.4 5804.38 2110.4 5933.98 2030.4L5972.38 2102.4C5887.58 2171.2 5799.58 2223.2 5708.38 2258.4C5617.18 2293.6 5527.58 2311.2 5439.58 2311.2C5330.78 2311.2 5232.38 2284.8 5144.38 2232C5057.98 2179.2 4989.18 2100 4937.98 1994.4C4886.78 1888.8 4861.18 1760 4861.18 1608C4861.18 1337.6 4923.58 1126.4 5048.38 974.4C5173.18 822.4 5349.18 746.4 5576.38 746.4ZM6823.69 746.4C7009.29 746.4 7148.49 805.6 7241.29 924C7335.69 1042.4 7382.89 1216 7382.89 1444.8C7382.89 1635.2 7354.89 1795.2 7298.89 1924.8C7242.89 2054.4 7166.89 2151.2 7070.89 2215.2C6976.49 2279.2 6870.09 2311.2 6751.69 2311.2C6567.69 2311.2 6427.69 2251.2 6331.69 2131.2C6237.29 2009.6 6190.09 1835.2 6190.09 1608C6190.09 1417.6 6218.09 1258.4 6274.09 1130.4C6330.09 1000.8 6405.29 904.8 6499.69 842.4C6595.69 778.4 6703.69 746.4 6823.69 746.4ZM6756.49 856.8C6537.29 856.8 6427.69 1096 6427.69 1574.4C6427.69 1763.2 6459.69 1915.2 6523.69 2030.4C6587.69 2144 6687.69 2200.8 6823.69 2200.8C6934.09 2200.8 7015.69 2136 7068.49 2006.4C7121.29 1875.2 7147.69 1698.4 7147.69 1476C7147.69 1285.6 7116.49 1135.2 7054.09 1024.8C6991.69 912.8 6892.49 856.8 6756.49 856.8ZM8576.33 2037.6C8600.33 2087.2 8629.93 2125.6 8665.12 2152.8C8700.33 2180 8748.33 2194.4 8809.12 2196V2287.2C8727.52 2282.4 8641.13 2280 8549.93 2280H8456.33L8113.13 1608H8067.53C8032.33 1608 8005.13 1607.2 7985.93 1605.6V1994.4C7985.93 2050.4 7989.93 2092 7997.93 2119.2C8007.53 2144.8 8025.93 2164 8053.12 2176.8C8081.93 2188 8126.73 2194.4 8187.53 2196V2287.2C8030.73 2279.2 7928.33 2275.2 7880.33 2275.2C7832.33 2275.2 7736.33 2279.2 7592.33 2287.2V2196C7643.53 2194.4 7681.13 2188 7705.13 2176.8C7729.13 2164 7745.13 2144 7753.12 2116.8C7762.73 2089.6 7767.53 2048.8 7767.53 1994.4V1068C7767.53 1013.6 7762.73 972.8 7753.12 945.6C7745.13 918.4 7729.13 899.2 7705.13 888C7681.13 876.8 7643.53 870.4 7592.33 868.8V782.4C7637.13 782.4 7733.93 780 7882.73 775.2C7946.73 770.4 8013.93 768 8084.33 768C8266.73 768 8404.33 804 8497.13 876C8591.53 948 8638.73 1044.8 8638.73 1166.4C8638.73 1268.8 8612.33 1355.2 8559.53 1425.6C8508.33 1494.4 8432.33 1544 8331.53 1574.4L8576.33 2037.6ZM7985.93 1492.8C8024.33 1497.6 8061.93 1500 8098.73 1500C8196.33 1500 8274.73 1469.6 8333.93 1408.8C8393.13 1348 8422.73 1275.2 8422.73 1190.4C8422.73 1097.6 8395.53 1024 8341.13 969.6C8286.73 915.2 8200.33 888 8081.93 888H7985.93V1492.8ZM10066.9 1855.2L9980.46 2294.4C9862.06 2284.8 9716.46 2280 9543.66 2280H9279.66C9177.26 2280 9079.66 2282.4 8986.86 2287.2V2196C9038.06 2194.4 9075.66 2188 9099.66 2176.8C9123.66 2164 9139.66 2144 9147.66 2116.8C9157.26 2089.6 9162.06 2048.8 9162.06 1994.4V1068C9162.06 1013.6 9157.26 972.8 9147.66 945.6C9139.66 918.4 9123.66 899.2 9099.66 888C9075.66 875.2 9038.06 868 8986.86 866.4V775.2C9079.66 778.4 9177.26 780 9279.66 780H9543.66C9713.26 780 9854.86 776 9968.46 768L9994.86 1190.4H9901.26C9882.06 1115.2 9860.46 1056.8 9836.46 1015.2C9814.06 972 9780.46 940 9735.66 919.2C9690.86 898.4 9629.26 888 9550.86 888H9380.46V1488H9454.86C9523.66 1488 9574.86 1475.2 9608.46 1449.6C9643.66 1422.4 9662.06 1372.8 9663.66 1300.8H9754.86L9750.06 1368C9745.26 1441.6 9742.86 1498.4 9742.86 1538.4C9742.86 1573.6 9745.26 1628.8 9750.06 1704L9754.86 1776H9663.66C9662.06 1705.6 9643.66 1658.4 9608.46 1634.4C9574.86 1608.8 9523.66 1596 9454.86 1596H9380.46V2172H9550.86C9643.66 2172 9718.06 2159.2 9774.06 2133.6C9830.06 2108 9872.46 2072.8 9901.26 2028C9930.06 1981.6 9954.06 1924 9973.26 1855.2H10066.9ZM10778.9 748.8C10847.7 748.8 10915.7 755.2 10982.9 768C11051.7 780.8 11110.1 798.4 11158.1 820.8C11150.1 875.2 11145.3 933.6 11143.7 996C11142.1 1056.8 11141.3 1117.6 11141.3 1178.4H11047.7C11047.7 1082.4 11021.3 1005.6 10968.5 948C10917.3 890.4 10849.3 861.6 10764.5 861.6C10687.7 861.6 10623.7 881.6 10572.5 921.6C10522.9 961.6 10498.1 1016.8 10498.1 1087.2C10498.1 1146.4 10513.3 1196.8 10543.7 1238.4C10575.7 1278.4 10611.7 1310.4 10651.7 1334.4C10693.3 1358.4 10750.9 1388 10824.5 1423.2C10899.7 1458.4 10962.1 1493.6 11011.7 1528.8C11062.9 1564 11106.1 1611.2 11141.3 1670.4C11178.1 1728 11196.5 1798.4 11196.5 1881.6C11196.5 1969.6 11174.9 2046.4 11131.7 2112C11090.1 2176 11032.5 2225.6 10958.9 2260.8C10886.9 2294.4 10806.1 2311.2 10716.5 2311.2C10566.1 2311.2 10426.1 2286.4 10296.5 2236.8C10296.5 2083.2 10289.3 1949.6 10274.9 1836H10373.3C10398.9 1957.6 10439.7 2048.8 10495.7 2109.6C10551.7 2168.8 10628.5 2198.4 10726.1 2198.4C10799.7 2198.4 10862.9 2176.8 10915.7 2133.6C10970.1 2088.8 10997.3 2026.4 10997.3 1946.4C10997.3 1882.4 10983.7 1830.4 10956.5 1790.4C10929.3 1750.4 10896.5 1719.2 10858.1 1696.8C10819.7 1674.4 10761.3 1644.8 10682.9 1608C10609.3 1574.4 10546.1 1540.8 10493.3 1507.2C10442.1 1472 10398.1 1425.6 10361.3 1368C10324.5 1308.8 10306.1 1236.8 10306.1 1152C10306.1 1011.2 10351.7 908.8 10442.9 844.8C10534.1 780.8 10646.1 748.8 10778.9 748.8ZM12945.1 1190.4H12851.5C12835.5 1115.2 12815.5 1056.8 12791.5 1015.2C12767.5 972 12732.3 940 12685.9 919.2C12641.1 898.4 12579.5 888 12501.1 888H12354.7V1490.4H12419.5C12489.9 1490.4 12541.9 1476.8 12575.5 1449.6C12610.7 1422.4 12629.9 1372.8 12633.1 1300.8H12721.9L12717.1 1365.6C12712.3 1442.4 12709.9 1500.8 12709.9 1540.8C12709.9 1579.2 12712.3 1640.8 12717.1 1725.6L12721.9 1807.2H12633.1C12629.9 1722.4 12611.5 1666.4 12577.9 1639.2C12544.3 1610.4 12491.5 1596 12419.5 1596H12354.7V1994.4C12354.7 2050.4 12358.7 2092 12366.7 2119.2C12376.3 2144.8 12394.7 2164 12421.9 2176.8C12450.7 2188 12495.5 2194.4 12556.3 2196V2287.2L12491.5 2284.8C12395.5 2278.4 12315.5 2275.2 12251.5 2275.2C12190.7 2275.2 12116.3 2278.4 12028.3 2284.8C11999.5 2284.8 11977.1 2285.6 11961.1 2287.2V2196C12012.3 2194.4 12049.9 2188 12073.9 2176.8C12097.9 2164 12113.9 2144 12121.9 2116.8C12131.5 2089.6 12136.3 2048.8 12136.3 1994.4V1068C12136.3 1013.6 12131.5 972.8 12121.9 945.6C12113.9 918.4 12097.9 899.2 12073.9 888C12049.9 875.2 12012.3 868 11961.1 866.4V775.2C12053.9 778.4 12151.5 780 12253.9 780H12496.3C12665.9 780 12806.7 776 12918.7 768L12945.1 1190.4ZM13854.5 746.4C13907.3 746.4 13966.5 751.2 14032.1 760.8C14099.3 768.8 14161.7 780 14219.3 794.4C14211.3 856.8 14206.5 924.8 14204.9 998.4C14203.3 1072 14202.5 1144 14202.5 1214.4H14104.1C14104.1 1105.6 14076.9 1020 14022.5 957.6C13968.1 893.6 13894.5 861.6 13801.7 861.6C13652.9 861.6 13544.9 920.8 13477.7 1039.2C13410.5 1157.6 13376.9 1326.4 13376.9 1545.6C13376.9 1750.4 13419.3 1902.4 13504.1 2001.6C13590.5 2100.8 13701.7 2150.4 13837.7 2150.4C13957.7 2150.4 14082.5 2110.4 14212.1 2030.4L14250.5 2102.4C14165.7 2171.2 14077.7 2223.2 13986.5 2258.4C13895.3 2293.6 13805.7 2311.2 13717.7 2311.2C13608.9 2311.2 13510.5 2284.8 13422.5 2232C13336.1 2179.2 13267.3 2100 13216.1 1994.4C13164.9 1888.8 13139.3 1760 13139.3 1608C13139.3 1337.6 13201.7 1126.4 13326.5 974.4C13451.3 822.4 13627.3 746.4 13854.5 746.4Z" fill="#FFCC1D"/>
<rect y="3000" width="3000" height="3000" rx="1500" transform="rotate(-90 0 3000)" fill="#FFCC1D"/>
<path d="M1500 0C671.572 0 0 671.572 0 1500C828.428 1500 1500 828.427 1500 0Z" fill="#116530"/>
<path d="M1500 3000C2328.43 3000 3000 2328.43 3000 1500C2171.57 1500 1500 2171.57 1500 3000Z" fill="#116530"/>
<path d="M1500 0C2328.43 0 3000 671.572 3000 1500C2171.57 1500 1500 828.427 1500 0Z" fill="#116530"/>
<path d="M1500 3000C671.572 3000 -7.24234e-05 2328.43 0 1500C828.428 1500 1500 2171.57 1500 3000Z" fill="#116530"/>
</svg>
